<?xml version="1.0" encoding="iso-8859-1"?>
<!-- Generator: Adobe Illustrator 19.0.0, SVG Export Plug-In . SVG Version: 6.00 Build 0)  -->
<svg version="1.1" id="Layer_1" xmlns="http://www.w3.org/2000/svg" xmlns:xlink="http://www.w3.org/1999/xlink" x="0px" y="0px"
	 viewBox="0 0 512 512" style="enable-background:new 0 0 512 512;" xml:space="preserve">
<g>
	<g>
		<g>
			<path d="M359.353,380.598c-9.421-4.971-32.608-18.128-42.642-27.56v-25.616c32.116-18.387,54.037-51.277,60.987-91.491
				c18.189-5.216,34.019-22.287,34.019-37.988c0-15.889-11.938-26.433-31.672-28.62v-18.471c0.668-6.672,6.065-71.81-32.304-114.677
				C326.256,12.172,295.39,0,256,0c-39.394,0-70.262,12.173-91.749,36.179c-38.367,42.869-32.964,108.006-32.296,114.674v18.469
				c-19.734,2.187-31.672,12.731-31.672,28.62c0,15.707,15.842,32.786,34.019,37.992c6.952,40.22,28.872,73.107,60.987,91.489
				v25.616c-10.039,9.438-33.249,22.604-42.66,27.569c-102.846,33.403-105.081,94.346-105.125,96.93L47.503,512h416.994v-34.365
				C464.484,475.035,463.01,413.685,359.353,380.598z M380.044,185.267c14.09,1.981,15.811,9.268,15.811,12.676
				c0,6.462-6.985,15.259-16.108,20.128C379.933,214.893,380.044,185.267,380.044,185.267z M116.145,197.943
				c0-3.408,1.722-10.696,15.81-12.676c0,0,0.112,29.629,0.298,32.809C123.136,213.209,116.145,204.409,116.145,197.943z
				 M176.129,46.694C194.475,26.236,221.348,15.863,256,15.863c34.648,0,61.518,10.372,79.865,30.828
				c27.914,31.124,29.364,77.881,28.792,95.662c-62.093-2.481-108.869-34.996-109.347-35.332l-12.519-8.876v15.345
				c0,6.385-12.829,15.658-48.833,22.534c-18.172,3.471-36.553,5.21-46.626,5.977C146.791,123.955,148.401,77.612,176.129,46.694z
				 M149.15,228.251c-0.884-6.442-1.332-13.089-1.332-19.754v-50.615c10.25-0.756,29.488-2.537,48.972-6.248
				c31.433-5.988,50.669-14.567,58.206-26.046c17.234,10.181,57.938,30.665,109.187,32.631v50.278
				c0,6.665-0.448,13.311-1.333,19.759c-5.371,39.341-26.408,71.208-57.718,87.43c-14.785,7.662-31.315,11.547-49.13,11.547
				s-34.347-3.885-49.133-11.547C175.558,299.47,154.521,267.603,149.15,228.251z M300.849,334.974v18.25
				c-5.426,5.665-22.595,21.512-44.849,21.512c-22.11,0-39.398-15.878-44.849-21.528v-18.234
				c13.937,5.386,28.966,8.121,44.849,8.121C271.882,343.095,286.911,340.359,300.849,334.974z M448.635,496.138H63.365v-18.366
				c0.065-1.664,3.028-52.707,94.785-82.279c0,0,30.018-15.722,44.796-28.077c8.132,7.65,24.215,20.047,45.122,22.675v92.859h15.863
				v-92.859c20.908-2.628,36.99-15.025,45.122-22.675c14.779,12.355,44.835,28.089,44.835,28.089
				c26.88,8.513,63.057,24.548,82.761,52.6c11.315,16.108,11.96,28.993,11.985,29.649V496.138z"/>
			<path d="M242.813,211.151L242.813,211.151h26.364v26.385h79.196v-68.642h-79.196v26.395h-26.364v-26.395h-79.196v68.642h79.196
				V211.151z M285.039,184.756h47.471v36.917h-47.471V184.756z M226.95,221.674h-47.471v-36.917h47.471V221.674z"/>
			<polygon points="263.931,245.446 248.069,245.446 248.069,279.762 277.108,279.762 277.108,263.9 263.931,263.9 			"/>
			<rect x="314.057" y="448.635" width="84.452" height="15.862"/>
			<rect x="213.774" y="401.132" width="21.108" height="15.863"/>
			<rect x="213.774" y="432.793" width="21.108" height="15.863"/>
			<rect x="213.774" y="464.465" width="21.108" height="15.863"/>
		</g>
	</g>
</g>
<g>
</g>
<g>
</g>
<g>
</g>
<g>
</g>
<g>
</g>
<g>
</g>
<g>
</g>
<g>
</g>
<g>
</g>
<g>
</g>
<g>
</g>
<g>
</g>
<g>
</g>
<g>
</g>
<g>
</g>
</svg>
