<?xml version="1.0" encoding="iso-8859-1"?>
<!-- Generator: Adobe Illustrator 19.0.0, SVG Export Plug-In . SVG Version: 6.00 Build 0)  -->
<svg version="1.1" id="Layer_1" xmlns="http://www.w3.org/2000/svg" xmlns:xlink="http://www.w3.org/1999/xlink" x="0px" y="0px"
	 viewBox="0 0 512 512" style="enable-background:new 0 0 512 512;" xml:space="preserve">
<g>
	<g>
		<g>
			<path d="M42.667,324.267c4.71,0,8.533-3.823,8.533-8.533V42.667c0-12.442,13.158-25.6,25.6-25.6h358.4
				c12.442,0,25.6,13.158,25.6,25.6v273.067c0,4.71,3.823,8.533,8.533,8.533s8.533-3.823,8.533-8.533V42.667
				C477.867,20.736,457.131,0,435.2,0H76.8C54.869,0,34.133,20.736,34.133,42.667v273.067
				C34.133,320.444,37.956,324.267,42.667,324.267z"/>
			<path d="M372.966,87.834c-3.337-3.337-8.73-3.337-12.066,0c-3.336,3.337-3.336,8.73,0,12.066l17.067,17.067
				c1.664,1.664,3.849,2.5,6.033,2.5c2.185,0,4.369-0.836,6.033-2.5c3.337-3.337,3.337-8.73,0-12.066L372.966,87.834z"/>
			<path d="M321.766,87.834c-3.337-3.337-8.73-3.337-12.066,0c-3.336,3.337-3.336,8.73,0,12.066l68.267,68.267
				c1.664,1.664,3.849,2.5,6.033,2.5c2.185,0,4.369-0.836,6.033-2.5c3.337-3.337,3.337-8.73,0-12.066L321.766,87.834z"/>
			<path d="M452.267,426.667c4.71,0,8.533-3.823,8.533-8.533s-3.823-8.533-8.533-8.533H384c-4.71,0-8.533,3.823-8.533,8.533
				s3.823,8.533,8.533,8.533H452.267z"/>
			<path d="M494.933,341.333H17.067C7.654,341.333,0,348.988,0,358.4v119.467c0,9.412,7.654,17.067,17.067,17.067h42.667
				c4.71,0,8.533-3.823,8.533-8.533s-3.823-8.533-8.533-8.533H17.067V358.4h477.867v119.467h-42.667
				c-4.71,0-8.533,3.823-8.533,8.533s3.823,8.533,8.533,8.533h42.667c9.412,0,17.067-7.654,17.067-17.067V358.4
				C512,348.988,504.346,341.333,494.933,341.333z"/>
			<path d="M93.867,34.133c-14.114,0-25.6,11.486-25.6,25.6v238.933c0,14.114,11.486,25.6,25.6,25.6h324.267
				c14.114,0,25.6-11.486,25.6-25.6V59.733c0-14.114-11.486-25.6-25.6-25.6H93.867z M426.667,59.733v238.933
				c0,4.702-3.831,8.533-8.533,8.533H93.867c-4.702,0-8.533-3.831-8.533-8.533V59.733c0-4.702,3.831-8.533,8.533-8.533h324.267
				C422.835,51.2,426.667,55.031,426.667,59.733z"/>
			<path d="M426.667,494.933h-8.533V486.4c0-4.71-3.823-8.533-8.533-8.533s-8.533,3.823-8.533,8.533v8.533H384V486.4
				c0-4.71-3.823-8.533-8.533-8.533s-8.533,3.823-8.533,8.533v8.533h-17.067V486.4c0-4.71-3.823-8.533-8.533-8.533
				s-8.533,3.823-8.533,8.533v8.533h-51.2V486.4c0-4.71-3.823-8.533-8.533-8.533c-4.71,0-8.533,3.823-8.533,8.533v8.533h-17.067
				V486.4c0-4.71-3.823-8.533-8.533-8.533s-8.533,3.823-8.533,8.533v8.533h-17.067V486.4c0-4.71-3.823-8.533-8.533-8.533
				c-4.71,0-8.533,3.823-8.533,8.533v8.533H179.2V486.4c0-4.71-3.823-8.533-8.533-8.533s-8.533,3.823-8.533,8.533v8.533h-17.067
				V486.4c0-4.71-3.823-8.533-8.533-8.533S128,481.69,128,486.4v8.533h-17.067V486.4c0-4.71-3.823-8.533-8.533-8.533
				c-4.71,0-8.533,3.823-8.533,8.533v8.533h-8.533c-4.71,0-8.533,3.823-8.533,8.533S80.623,512,85.333,512h341.333
				c4.71,0,8.533-3.823,8.533-8.533S431.377,494.933,426.667,494.933z"/>
			<path d="M85.589,418.133c0-4.71-3.814-8.533-8.533-8.533h-0.085c-4.71,0-8.491,3.823-8.491,8.533s3.866,8.533,8.576,8.533
				C81.775,426.667,85.589,422.844,85.589,418.133z"/>
		</g>
	</g>
</g>
<g>
</g>
<g>
</g>
<g>
</g>
<g>
</g>
<g>
</g>
<g>
</g>
<g>
</g>
<g>
</g>
<g>
</g>
<g>
</g>
<g>
</g>
<g>
</g>
<g>
</g>
<g>
</g>
<g>
</g>
</svg>
